<?xml version="1.0" encoding="UTF-8"?>
<!DOCTYPE svg PUBLIC "-//W3C//DTD SVG 1.1//EN" "http://www.w3.org/Graphics/SVG/1.1/DTD/svg11.dtd">
<!-- Creator: CorelDRAW -->
<svg xmlns="http://www.w3.org/2000/svg" xml:space="preserve" width="2048px" height="2048px" style="shape-rendering:geometricPrecision; text-rendering:geometricPrecision; image-rendering:optimizeQuality; fill-rule:evenodd; clip-rule:evenodd"
viewBox="0 0 2048 2048"
 xmlns:xlink="http://www.w3.org/1999/xlink">
 <defs>
  <style type="text/css">
   <![CDATA[
    .fil1 {fill:none}
    .fil0 {fill:#424242}
   ]]>
  </style>
 </defs>
 <g id="Layer_x0020_1">
  <metadata id="CorelCorpID_0Corel-Layer"/>
  <g id="_287437048">
   <path id="_287437216" class="fil0" d="M1024 1780.2c-62.3115,0.0472441 -116.334,29.6587 -159.317,-5.13662 -25.1953,-20.3953 -46.6028,-52.4989 -63.6662,-103.011 5.79331,0.543308 11.6882,0.82441 17.6811,0.82441 53.4662,0 111.011,-22.3016 153.782,-57.9957 21.6945,-18.104 39.6992,-39.7028 51.6697,-63.6981 11.9705,23.9953 29.974,45.5941 51.6685,63.6981 42.7713,35.6941 100.316,57.9957 153.782,57.9957 5.88662,0 11.6787,-0.271654 17.3728,-0.794883 -17.061,50.4957 -38.4662,82.5898 -63.6567,102.982 -42.9827,34.7953 -97.0052,5.18386 -159.317,5.13662zm380.71 -1150.53c4.93583,7.31693 14.8701,9.24804 22.187,4.31221 7.31693,-4.93583 9.24804,-14.8701 4.31221,-22.187 -40.9926,-60.8221 -100.543,-100.876 -171.619,-125.656 -69.8445,-24.352 -150.621,-33.8599 -235.59,-33.8599 -84.9072,0 -165.631,9.49371 -235.445,33.8091 -71.0363,24.7394 -130.573,64.7304 -171.598,125.46 -4.93583,7.31693 -3.00473,17.2512 4.31221,22.187 7.31693,4.93583 17.2512,3.00473 22.187,-4.31221 36.854,-54.5563 90.8788,-90.6709 155.599,-113.21 65.9398,-22.9654 143.176,-31.9335 224.945,-31.9335 81.8268,0 159.116,8.98111 225.09,31.9843 64.7445,22.5732 118.782,58.7493 155.62,113.406zm-111.702 23.8299c6.66142,5.76378 16.7362,5.03622 22.5,-1.6252 5.76378,-6.66142 5.03622,-16.7362 -1.6252,-22.5 -37.5614,-32.6658 -87.5776,-51.9367 -139.845,-62.9859 -51.267,-10.839 -104.561,-13.7965 -150.038,-13.7965 -45.4772,0 -98.7709,2.95748 -150.038,13.7965 -52.2674,11.0492 -102.284,30.3201 -139.845,62.9859 -6.66142,5.76378 -7.38898,15.8386 -1.6252,22.5 5.76378,6.66142 15.8386,7.38898 22.5,1.6252 32.9693,-28.6725 77.9953,-45.8256 125.471,-55.8615 48.4748,-10.2484 99.6414,-13.0453 143.537,-13.0453 43.8957,0 95.0623,2.79685 143.537,13.0453 47.4756,10.0358 92.5016,27.189 125.471,55.8615zm-178.982 622.621c-23.628,-13.1941 -55.5331,10.9158 -89.8749,10.9158 -34.3418,0 -66.2504,-24.1087 -89.8772,-10.9158 -24.7075,13.7988 -39.8244,33.7276 -39.8244,59.7709 0,50.9705 59.6871,131.723 129.702,131.723 70.0134,0 129.699,-80.7532 129.699,-131.723 0,-26.0433 -15.1181,-45.9721 -39.8244,-59.7709zm-411.372 354.893c-217.388,-74.5536 -407.814,-164.894 -336.775,-428.491 35.5193,-131.795 9.77363,-269.262 108.091,-415.661 17.6492,-317.3 257.15,-430.887 550.03,-430.926 292.881,0.0389764 532.381,113.626 550.03,430.926 98.3174,146.399 72.5717,283.866 108.091,415.661 70.9831,263.391 -119.089,353.797 -336.266,428.316 4.04764,-3.38859 7.95473,-6.95197 11.7165,-10.6784 32.8914,-32.5914 54.4288,-77.7284 60.3237,-127.589 145.876,-49.513 189.931,-150.191 190.063,-150.486 3.62362,-8.04213 0.0425197,-17.5004 -7.99961,-21.124 -8.04213,-3.62362 -17.5004,-0.0425197 -21.124,7.99961 -0.112205,0.249213 -36.6662,83.8654 -160.851,129.738 -3.52205,-28.963 -15.7488,-59.3646 -33.0319,-90.8481 168.731,-93.4926 213.058,-215.349 213.195,-215.712 3.10512,-8.24883 -1.06417,-17.4567 -9.313,-20.5618 -8.24883,-3.10512 -17.4567,1.06417 -20.5618,9.313 -0.124016,0.330709 -40.5863,111.664 -199.503,199.368 -17.3315,-27.9414 -37.6925,-56.6256 -58.6642,-85.819 202.804,-108.299 255.457,-253.432 255.617,-253.856 3.07205,-8.24883 -1.12559,-17.4284 -9.37442,-20.5004 -8.24883,-3.07205 -17.4284,1.12559 -20.5004,9.37442 -0.146457,0.393307 -49.3359,136.087 -244.51,238.864 -46.2839,-64.591 -91.917,-131.131 -108.834,-193.883 17.6728,7.87796 37.1174,11.1591 57.2363,10.4268 29.9764,-1.09252 61.4788,-11.1768 90.6154,-28.2177 28.7351,-16.8059 55.3418,-40.4941 75.9827,-69.0508 25.8673,-35.7874 42.4217,-79.2721 42.2398,-126.586 12.0284,-5.28898 23.0563,-11.7933 32.7189,-19.9878 6.73111,-5.6941 7.56969,-15.7689 1.87559,-22.5 -5.6941,-6.73111 -15.7689,-7.56969 -22.5,-1.87559 -28.0181,23.7614 -76.4505,30.6508 -125.65,37.6488 -15.6827,2.2311 -31.4457,4.47402 -47.7437,7.47166 -90.9568,16.7327 -167.56,51.763 -140.062,201.233 14.7248,80.0422 73.7008,162.036 130.148,240.513 25.5118,35.4674 50.478,70.1823 70.1422,103.058 0.270473,0.83504 0.611811,1.65827 1.02992,2.4626 0.694489,1.33701 1.55315,2.53465 2.53583,3.58111 23.7437,40.8107 38.7425,78.6449 35.6799,111.373 -4.17048,44.5524 -22.754,84.8835 -51.6804,113.545 -27.0496,26.8016 -63.3508,43.3418 -105.471,43.3418 -46.1634,0 -96.0426,-19.4185 -133.283,-50.4957 -33.3236,-27.8079 -56.1674,-64.78 -56.1674,-104.954 0,-8.83583 -7.16457,-16.0004 -16.0004,-16.0004 -8.83583,0 -16.0004,7.16457 -16.0004,16.0004 0,40.174 -22.8449,77.1461 -56.1685,104.954 -37.2402,31.0772 -87.1194,50.4957 -133.283,50.4957 -42.1205,0 -78.4217,-16.5402 -105.471,-43.3418 -28.9252,-28.6618 -47.5087,-68.993 -51.6792,-113.545 -3.09095,-33.0177 12.1961,-71.23 36.3048,-112.452 0.602363,-0.768898 1.14449,-1.60394 1.61102,-2.50276 0.194882,-0.375591 0.373229,-0.755906 0.536221,-1.13858 19.7835,-33.2693 45.0803,-68.439 70.9347,-104.382 56.4485,-78.4784 115.423,-160.471 130.148,-240.513 27.4973,-149.47 -49.1055,-184.5 -140.062,-201.233 -16.298,-2.99764 -32.061,-5.24056 -47.7437,-7.47166 -49.2012,-6.99804 -97.6324,-13.8886 -125.65,-37.6488 -6.73111,-5.6941 -16.8059,-4.85552 -22.5,1.87559 -5.6941,6.73111 -4.85552,16.8059 1.87559,22.5 11.4602,9.71812 24.8362,17.0634 39.5292,22.8154 0.472441,46.2189 16.8815,88.6855 42.2327,123.758 20.641,28.5567 47.2477,52.2449 75.9827,69.0508 29.1355,17.041 60.6378,27.1252 90.6142,28.2177 17.2524,0.628347 34.0075,-1.69488 49.5768,-7.33819 -17.5689,61.8804 -62.5052,127.339 -108.059,190.909 -195.354,-102.791 -244.579,-238.584 -244.726,-238.979 -3.07205,-8.24883 -12.2516,-12.4465 -20.5004,-9.37442 -8.24883,3.07205 -12.4465,12.2516 -9.37442,20.5004 0.159449,0.424016 52.852,145.658 255.833,253.97 -20.9729,29.1957 -41.3315,57.8835 -58.6571,85.8272 -159.102,-87.7229 -199.602,-199.16 -199.726,-199.491 -3.10512,-8.24883 -12.313,-12.4181 -20.5618,-9.313 -8.24883,3.10512 -12.4181,12.313 -9.313,20.5618 0.137008,0.362599 44.5063,122.328 213.425,215.837 -17.2665,31.4764 -29.478,61.8709 -32.9776,90.828 -124.415,-45.8504 -161.023,-129.593 -161.136,-129.843 -3.62362,-8.04213 -13.0819,-11.6232 -21.124,-7.99961 -8.04213,3.62362 -11.6232,13.0819 -7.99961,21.124 0.132284,0.294095 44.2512,101.115 190.375,150.591 5.9126,49.8189 27.4429,94.9158 60.3107,127.484 3.82677,3.79134 7.80591,7.41142 11.9268,10.8532zm117.53 -211.38c9.34961,0 16.9288,7.57914 16.9288,16.9288 0,9.34961 -7.57914,16.9288 -16.9288,16.9288 -9.34961,0 -16.9288,-7.57914 -16.9288,-16.9288 0,-9.34961 7.57914,-16.9288 16.9288,-16.9288zm-30.1984 97.7871c9.34961,0 16.9288,7.57796 16.9288,16.9276 0,9.34961 -7.57914,16.9288 -16.9288,16.9288 -9.34961,0 -16.9288,-7.57914 -16.9288,-16.9288 0,-9.34961 7.57914,-16.9276 16.9288,-16.9276zm106.768 0c9.34961,0 16.9288,7.57796 16.9288,16.9276 0,9.34961 -7.57914,16.9288 -16.9288,16.9288 -9.34725,0 -16.9264,-7.57914 -16.9264,-16.9288 0,-9.34961 7.57914,-16.9276 16.9264,-16.9276zm-44.9055 -44.4272c9.34961,0 16.9288,7.57914 16.9288,16.9288 0,9.34961 -7.57914,16.9288 -16.9288,16.9288 -9.34961,0 -16.9276,-7.57914 -16.9276,-16.9288 0,-9.34961 7.57796,-16.9288 16.9276,-16.9288zm-102.593 -4.92638c9.34961,0 16.9288,7.57914 16.9288,16.9288 0,9.34843 -7.57914,16.9276 -16.9288,16.9276 -9.34961,0 -16.9288,-7.57914 -16.9288,-16.9276 0,-9.34961 7.57914,-16.9288 16.9288,-16.9288zm487.447 -48.4335c-9.34961,0 -16.9288,7.57914 -16.9288,16.9288 0,9.34961 7.57914,16.9288 16.9288,16.9288 9.34843,0 16.9288,-7.57914 16.9288,-16.9288 0,-9.34961 -7.58032,-16.9288 -16.9288,-16.9288zm30.1984 97.7871c-9.34961,0 -16.9288,7.57796 -16.9288,16.9276 0,9.34961 7.57914,16.9288 16.9288,16.9288 9.34843,0 16.9288,-7.57914 16.9288,-16.9288 0,-9.34961 -7.58032,-16.9276 -16.9288,-16.9276zm-106.769 0c-9.34843,0 -16.9288,7.57796 -16.9288,16.9276 0,9.34961 7.58032,16.9288 16.9288,16.9288 9.34843,0 16.9276,-7.57914 16.9276,-16.9288 0,-9.34961 -7.57914,-16.9276 -16.9276,-16.9276zm44.9055 -44.4272c-9.34843,0 -16.9276,7.57914 -16.9276,16.9288 0,9.34961 7.57914,16.9288 16.9276,16.9288 9.34961,0 16.9276,-7.57914 16.9276,-16.9288 0,-9.34961 -7.57796,-16.9288 -16.9276,-16.9288zm102.594 -4.92638c-9.34961,0 -16.9288,7.57914 -16.9288,16.9288 0,9.34843 7.57914,16.9276 16.9288,16.9276 9.34843,0 16.9276,-7.57914 16.9276,-16.9276 0,-9.34961 -7.57914,-16.9288 -16.9276,-16.9288z"/>
   <path id="_287436976" class="fil0" d="M460.493 666.036c-28.9323,-64.1445 -54.8634,-95.5194 -135.964,-133.486 -54.5752,-25.552 -52.7493,-73.9985 -51.7288,-124.573 0.783071,-38.863 -9.79725,-78.9875 19.6299,-110.942 89.5607,-97.2591 294.068,-5.95985 364.114,110.798 -93.9107,54.7288 -163.891,138.567 -196.051,258.203z"/>
   <path id="_287437312" class="fil0" d="M1587.51 666.034c28.9311,-64.1422 54.8622,-95.517 135.963,-133.484 54.5752,-25.552 52.7493,-73.9985 51.7288,-124.573 -0.783071,-38.863 9.79725,-78.9875 -19.6299,-110.942 -89.5607,-97.2591 -294.068,-5.96103 -364.115,110.797 93.9119,54.7264 163.893,138.566 196.054,258.202z"/>
   <g>
    <circle id="_287437672" class="fil0" cx="771.54" cy="914.898" r="54.1057"/>
    <circle id="_287437480" class="fil0" cx="1276.46" cy="914.898" r="54.1057"/>
   </g>
  </g>
 </g>
 <rect class="fil1" width="2048" height="2048"/>
</svg>
