<?xml version="1.0" encoding="UTF-8"?>
<!DOCTYPE svg PUBLIC "-//W3C//DTD SVG 1.1//EN" "http://www.w3.org/Graphics/SVG/1.1/DTD/svg11.dtd">
<!-- Creator: CorelDRAW -->
<svg xmlns="http://www.w3.org/2000/svg" xml:space="preserve" width="2048px" height="2048px" style="shape-rendering:geometricPrecision; text-rendering:geometricPrecision; image-rendering:optimizeQuality; fill-rule:evenodd; clip-rule:evenodd"
viewBox="0 0 2048 2048"
 xmlns:xlink="http://www.w3.org/1999/xlink">
 <defs>
  <style type="text/css">
   <![CDATA[
    .fil2 {fill:none}
    .fil0 {fill:#424242}
    .fil1 {fill:#424242;fill-rule:nonzero}
   ]]>
  </style>
 </defs>
 <g id="Layer_x0020_1">
  <metadata id="CorelCorpID_0Corel-Layer"/>
  <g id="_287438704">
   <path id="_287439400" class="fil0" d="M1307.65 899.575l0 681.932c0,273.278 -1051.65,277.439 -1051.65,0l0 -681.932c0,-233.268 1065.78,-226.323 1051.65,0zm-131.483 580.689c0,-18.15 -14.7142,-32.8654 -32.8642,-32.8654 -18.15,0 -32.8654,14.7154 -32.8654,32.8654 0,48.2469 -82.2225,81.7312 -187.241,98.4237 -45.1028,7.16693 -93.9887,10.7787 -142.824,10.8047 -48.8469,0.0271654 -97.6572,-3.52796 -142.593,-10.6843 -103.688,-16.5142 -184.524,-49.8272 -184.524,-98.5442 0,-18.15 -14.7154,-32.8654 -32.8654,-32.8654 -18.15,0 -32.8642,14.7154 -32.8642,32.8654 0,88.0749 105.132,141.767 239.984,163.246 48.1807,7.67127 100.506,11.4827 152.863,11.4555 52.3689,-0.0283465 104.771,-3.89764 153.093,-11.5772 136.126,-21.6378 242.701,-75.606 242.701,-163.125zm-629.849 -342.312c30.287,0 54.8386,24.5528 54.8386,54.8386 0,30.287 -24.5516,54.8398 -54.8386,54.8398 -30.2859,0 -54.8374,-24.5528 -54.8374,-54.8398 0,-30.2859 24.5516,-54.8386 54.8374,-54.8386zm471.056 0c30.2882,0 54.8386,24.5528 54.8386,54.8386 0,30.287 -24.5504,54.8398 -54.8386,54.8398 -30.2859,0 -54.8374,-24.5528 -54.8374,-54.8398 0,-30.2859 24.5516,-54.8386 54.8374,-54.8386zm-235.479 -368.182c43.9288,0 79.5402,14.7142 79.5402,32.8642 0,18.15 -35.6114,32.8642 -79.5402,32.8642 -43.9288,0 -79.5402,-14.7142 -79.5402,-32.8642 0,-18.15 35.6114,-32.8642 79.5402,-32.8642z"/>
   <path id="_287439640" class="fil0" d="M1286.86 1615.74c42.7489,-44.5087 115.452,-62.9882 168.796,-62.9882 66.2233,0 126.371,36.2882 170.776,95.3835 -72.6331,-133.906 53.2241,-180.053 -55.8745,-291.797 248.749,-62.1874 102.729,-257.488 205.273,-400.742l16.1669 -24.3484c-103.088,160.29 -238.105,272.033 -353.029,198.121 -44.8666,-28.8532 -145.367,-123.17 -152.108,-208.121l0 694.493z"/>
   <path id="_287439952" class="fil1" d="M741.973 645.825c61.4658,-178.427 -128.531,-275.566 -160.823,-153.873 -8.67166,32.6752 6.81024,66.7926 66.3237,62.8607 45.4512,-3.00236 105.063,-5.15906 94.4989,91.0123z"/>
   <path id="_287438656" class="fil1" d="M815.66 563.013c-73.9654,-214.71 154.667,-331.601 193.526,-185.163 10.435,39.3201 -8.19568,80.3753 -79.8119,75.6438 -54.6933,-3.61299 -126.426,-6.20788 -113.714,109.519z"/>
   <path id="_287438944" class="fil1" d="M759.203 427.414c49.467,-143.595 -103.44,-221.771 -129.428,-123.835 -6.97914,26.2973 5.4815,53.7544 53.3764,50.5902 36.5788,-2.41654 84.5528,-4.15158 76.0512,73.2449z"/>
  </g>
 </g>
 <rect class="fil2" width="2048" height="2048"/>
</svg>
