<?xml version="1.0" encoding="UTF-8"?>
<!DOCTYPE svg PUBLIC "-//W3C//DTD SVG 1.1//EN" "http://www.w3.org/Graphics/SVG/1.1/DTD/svg11.dtd">
<!-- Creator: CorelDRAW -->
<svg xmlns="http://www.w3.org/2000/svg" xml:space="preserve" width="2048px" height="2048px" style="shape-rendering:geometricPrecision; text-rendering:geometricPrecision; image-rendering:optimizeQuality; fill-rule:evenodd; clip-rule:evenodd"
viewBox="0 0 2048 2048"
 xmlns:xlink="http://www.w3.org/1999/xlink">
 <defs>
  <style type="text/css">
   <![CDATA[
    .fil1 {fill:none}
    .fil0 {fill:#424242}
   ]]>
  </style>
 </defs>
 <g id="Layer_x0020_1">
  <metadata id="CorelCorpID_0Corel-Layer"/>
  <g id="_287440240">
   <path id="_287440888" class="fil0" d="M946.925 1300.09c-24.9106,-20.3303 -40.8142,-48.3036 -40.8142,-70.3619 0,-29.4496 32.3055,-47.0705 73.7398,-53.8489 13.8095,-2.21811 28.9795,-3.32599 44.0209,-3.32599 14.6764,0 29.2299,1.10787 42.6709,3.20197 0.497244,0 0.98504,0.124016 1.47874,0.124016l-2.71063 16.5154 2.71063 -16.3925c41.4331,6.65552 73.8662,24.2764 73.8662,53.726 0,22.0583 -16.0276,50.0315 -40.813,70.3619 -20.7225,17.0032 -47.8489,29.3256 -77.08,29.3256 -29.3433,0 -56.3516,-12.3225 -77.0705,-29.3256l0.0011811 0zm-7.39961 -70.3619c0,12.6933 11.0988,30.4359 28.4858,44.7296 15.2929,12.4465 35.0244,21.5622 55.9831,21.5622 20.9693,0 40.6961,-9.11576 55.8685,-21.5622 17.387,-14.2937 28.6099,-32.0362 28.6099,-44.7296 0.0011811,-9.48544 -20.1059,-16.7622 -45.8764,-20.9492l0 0.126378c-0.369685,-0.126378 -0.863386,-0.245669 -1.23189,-0.368504 -11.8394,-1.73032 -24.6638,-2.71536 -37.4929,-2.71536 -13.1894,0 -26.387,0.98504 -38.7201,2.95748 -25.6488,4.18701 -45.626,11.4638 -45.626,20.9492l0 0z"/>
   <path id="_287440792" class="fil0" d="M721.993 416.194c-43.1622,-59.8855 -170.549,-135.299 -212.477,-159.082 -17.8807,29.5725 -57.7134,104.496 -38.4744,162.163 21.5811,64.6938 101.244,113.861 122.332,125.937 27.254,-5.91615 143.046,-34.2567 143.046,-93.7749 0,-5.6693 -1.60158,-11.9516 -4.4374,-18.3603 -2.34095,-2.95866 -4.68662,-5.91497 -6.90473,-8.99528 -1.72677,-2.34331 -2.83583,-5.17559 -3.08504,-7.88741l0.0011811 -0.0011811z"/>
   <path id="_287441416" class="fil0" d="M509.909 258.607c-18.1075,30.1465 -56.5937,104.029 -37.8154,160.318 21.1429,63.3804 97.8131,111.527 121.459,125.112 33.8362,-7.3819 141.758,-35.4662 141.758,-92.5997 0,-5.33622 -1.44331,-11.3185 -4.2874,-17.7815 -2.36693,-2.99292 -4.68307,-5.92205 -6.84804,-8.92678 -1.78347,-2.42126 -2.93622,-5.29607 -3.25748,-8.12599 -43.3146,-59.8241 -171.182,-135.356 -211.009,-157.996zm83.4638 287.713c-0.19252,0 -0.383859,-0.0484252 -0.552756,-0.145276 -23.3764,-13.3902 -101.328,-62.0871 -122.831,-126.549 -19.265,-57.7489 20.5606,-133.29 38.5772,-163.087 0.309449,-0.519685 0.970867,-0.689764 1.49646,-0.392126 38.8654,22.0453 169.077,98.6942 212.827,159.399 0.116929,0.161811 0.190158,0.349607 0.207874,0.548032 0.226772,2.49095 1.27559,5.16378 2.87362,7.32875 2.16496,3.01181 4.49882,5.95512 6.75001,8.80276 0.0590552,0.0720473 0.23504,0.316536 0.274016,0.403937 3.00827,6.79489 4.53307,13.1244 4.53307,18.8079 0,59.0292 -110.158,87.5304 -143.92,94.8591 -0.0791339,0.0153543 -0.157087,0.0236221 -0.23504,0.0236221z"/>
   <path id="_287440816" class="fil0" d="M1538.48 257.111c-41.9268,23.7839 -169.319,99.1973 -212.477,159.084 -0.369685,2.71063 -1.35591,5.54528 -3.08032,7.88741 -2.22166,3.07914 -4.5626,6.03662 -6.90709,8.99528 -2.9563,6.40749 -4.56142,12.691 -4.56142,18.3603 0,59.5182 115.916,87.8599 143.171,93.7749 21.0874,-12.0768 100.625,-61.2437 122.332,-125.937 19.2354,-57.6674 -20.5984,-132.589 -38.478,-162.163l0.0011811 -0.0011811z"/>
   <path id="_287441272" class="fil0" d="M1327.06 416.624c-0.327166,2.19213 -1.16221,5.29252 -3.24213,8.11418 -2.2311,3.09213 -4.62048,6.10867 -6.92481,9.02835 -2.78504,6.09331 -4.32874,12.2823 -4.32874,17.6717 0,57.1087 108.019,85.2119 141.881,92.5997 23.6091,-13.5638 100.168,-61.6441 121.461,-125.114 18.7736,-56.2867 -19.7138,-130.168 -37.8166,-160.315 -39.8374,22.6394 -167.726,98.1875 -211.03,158.015zm127.566 129.697c-0.0744095,0 -0.158268,-0.00826772 -0.232677,-0.0236221 -33.7925,-7.33583 -144.047,-35.8524 -144.047,-94.8591 0,-5.70945 1.61457,-12.2185 4.66654,-18.8256 2.43425,-3.12284 4.80591,-6.12048 7.01457,-9.17953 1.48228,-2.01496 2.50276,-4.63347 2.87717,-7.3878 0.0259843,-0.179528 0.0921261,-0.350788 0.201969,-0.498426 43.7492,-60.7052 173.959,-137.354 212.829,-159.399 0.519685,-0.296457 1.17874,-0.121654 1.49528,0.392126 18.0118,29.7945 57.8398,105.339 38.5796,163.087 -21.6579,64.5497 -99.4902,113.182 -122.834,126.549 -0.166536,0.0956694 -0.356693,0.145276 -0.550394,0.145276z"/>
   <path id="_287440312" class="fil0" d="M1024 557.534c-85.578,0 -171.412,-23.9043 -236.892,-71.8382 -6.76064,-4.96181 -13.3016,-10.1835 -19.5992,-15.6662 -19.4705,75.665 -154.432,105.199 -171.902,108.7 -34.9099,11.9315 -70.7941,26.674 -106.556,43.8674 -32.8713,15.7394 -66.163,33.7973 -98.8997,53.791l0 62.6611c27.8303,-16.2898 56.2134,-31.3181 84.5953,-44.98 37.3654,-17.9941 74.6056,-33.2693 110.616,-45.5953 8.63032,-2.9563 18.1264,1.72441 21.0851,10.4728 2.96103,8.62796 -1.72559,18.1134 -10.4799,21.0744 -35.0233,11.9492 -71.0327,26.7402 -106.917,43.9902 -32.8713,15.8504 -66.163,33.9213 -98.8997,53.9138l0 54.9945c105.161,-61.7552 215.806,-104.835 309.896,-119.876 57.4642,-9.36142 109.263,-8.13426 150.326,5.42008 43.5296,14.4213 75.2197,42.3922 89.895,86.015 5.92323,17.8654 9.00709,38.3221 8.63268,61.363l65.9823 -37.9512c2.7,-1.76929 5.86654,-2.70591 9.08977,-2.70355 0.0602363,0 0.121654,0 0.180709,0.0011811 3.1063,0.0318898 6.1689,0.933072 8.81339,2.61614l66.1371 38.0374c-0.370866,-23.041 2.59134,-43.4977 8.63032,-61.363 14.6764,-43.6217 46.3701,-71.5938 89.8985,-86.015 41.0646,-13.5543 92.732,-14.7827 150.325,-5.42008 35.0138,5.59725 72.306,15.0791 110.757,27.9603 0.336614,0.100394 0.668504,0.211417 0.994489,0.333071 64.5827,21.7217 132.4,53.015 198.149,91.5981l0 -54.9945c-32.8299,-19.9973 -66.0284,-38.074 -98.9056,-53.9292 -35.8807,-17.25 -71.8949,-32.041 -107.039,-43.9902 -8.6315,-2.96103 -13.3181,-12.4465 -10.3559,-21.0744 2.95512,-8.74725 12.3272,-13.4291 21.0862,-10.4728 36.0059,12.326 73.2508,27.6012 110.616,45.5953 28.3996,13.6701 56.7296,28.7103 84.5977,45.013l-0.0011811 -62.6788c-32.8288,-19.9984 -66.0272,-38.0646 -98.9044,-53.8063 -35.9433,-17.224 -71.7733,-31.9878 -106.86,-43.93 -18.6815,-3.77362 -152.316,-33.4158 -171.612,-108.708 -6.33898,5.50748 -12.9165,10.7528 -19.7067,15.7358 -65.3634,47.9351 -151.186,71.8382 -236.773,71.8382z"/>
   <path id="_287440600" class="fil0" d="M705.223 745.823c-30.7406,4.9441 -63.4134,13.063 -97.167,23.9918l-33.9201 211.368c-0.740552,4.06418 -0.98504,8.38111 -0.98504,12.939l-0.125197 0c0,20.576 7.64528,40.663 20.224,56.4355 12.4559,15.5256 29.5961,26.7355 49.0819,29.8193 3.32835,0.615355 7.15158,0.863386 11.0976,0.863386 0.616536,0 1.23307,0 1.84961,0.122835 8.01497,0.86693 15.7843,0.73819 23.5536,-0.49252 7.77048,-1.10906 15.2894,-3.32717 22.4433,-6.40749 8.50867,-3.5752 18.2516,0.248032 21.9496,8.74725 3.57992,8.50512 -0.243307,18.2386 -8.75552,21.9354 -8.24056,3.54213 -16.9228,6.2067 -25.8957,7.91339l0 41.9906c0,25.2614 10.3595,48.0591 27.0083,64.6949 16.5248,16.6382 39.4583,26.863 64.6182,26.863 8.13662,0 15.9047,-0.986221 23.302,-2.95748 7.65119,-1.97126 14.928,-4.92756 21.7063,-8.74607 8.01615,-4.56142 18.1311,-1.85197 22.6937,6.15945 4.5626,8.0067 1.72914,18.2362 -6.29292,22.6713 -5.64567,3.23386 -11.5217,6.00945 -17.628,8.32678l0 99.495c0,25.2614 10.3524,48.0591 27,64.6949 16.6488,16.6382 39.463,26.863 64.6229,26.863 25.2803,0 48.091,-10.226 64.7386,-26.863 16.6524,-16.6358 26.8866,-39.4335 26.8866,-64.6949l0 -43.4752c5.4815,0.870473 11.0799,1.33228 16.7658,1.33228 5.63977,0 11.1992,-0.458268 16.6524,-1.32165l0 43.4646c0,25.2614 10.3559,48.0591 27.0024,64.6949 16.526,16.6382 39.4654,26.863 64.6193,26.863 25.1634,0 48.091,-10.226 64.7434,-26.863 16.6465,-16.6358 26.8831,-39.4335 26.8831,-64.6961l0 -99.5233c-6.11339,-2.31142 -12.0106,-5.07756 -17.6362,-8.29725 -7.89213,-4.43504 -10.7256,-14.6646 -6.16418,-22.6713 4.43859,-8.01142 14.6728,-10.7209 22.689,-6.15945 6.66142,3.81851 14.0563,6.77481 21.7075,8.74607 7.27205,1.97126 15.0414,2.95748 23.1803,2.95748 25.278,0 48.0957,-10.226 64.7422,-26.863 16.6465,-16.6358 26.8807,-39.4335 26.8807,-64.6961l0 -42.0118c-8.92914,-1.70788 -17.5665,-4.36418 -25.7717,-7.89095 -8.50867,-3.69567 -12.4547,-13.4315 -8.75434,-21.9354 3.5752,-8.49922 13.4398,-12.3225 21.9532,-8.74725 7.14804,3.0815 14.6717,5.29725 22.4362,6.40749 7.65119,1.23071 15.5445,1.35945 23.5606,0.49252 0.615355,-0.122835 1.10787,-0.122835 1.72323,-0.122835 4.07126,0 7.89331,-0.248032 11.4697,-0.863386 19.3583,-3.20315 36.5032,-14.4177 48.9579,-29.8193 12.4547,-15.7725 20.0977,-35.7366 20.0965,-56.1886 0,-4.5626 -0.369685,-8.99764 -1.10787,-13.1858l-34.7445 -211.628c-33.4559,-10.7988 -65.8441,-18.8268 -96.3426,-23.7319 -14.9953,-2.39764 -29.4957,-4.03819 -43.3996,-4.88268 -0.405118,18.0414 -4.92166,35.7591 -13.0772,51.9544 -8.6315,17.126 -21.5847,32.5288 -38.6008,44.3599 -16.8933,11.8299 -35.7638,18.8551 -54.88,21.0732 -19.3559,2.33977 -38.9646,0 -57.0898,-6.77953 -1.05118,-0.3 -2.05984,-0.700394 -3.01536,-1.18937 -0.840946,13.1032 -0.256299,27.5221 1.9063,43.3359 1.23189,9.11694 -5.1815,17.4957 -14.3067,18.7288 -4.31103,0.615355 -8.50867,-0.49252 -11.8347,-2.83701l-84.4784 -48.6024 -84.469 48.6024c-3.33189,2.34449 -7.52481,3.45236 -11.8406,2.83701 -9.12402,-1.23307 -15.5339,-9.61182 -14.302,-18.7288 2.10118,-15.8327 2.68347,-30.2693 1.85197,-43.3866 -0.940158,0.464174 -1.93228,0.839764 -2.96575,1.11732 -18.1252,6.90119 -37.8567,9.24213 -57.0957,6.90237 -19.1114,-2.21929 -37.9819,-9.24331 -54.8752,-21.0732 -17.0138,-11.8311 -29.9634,-27.2327 -38.7201,-44.3599 -8.16142,-16.1965 -12.5728,-33.913 -12.9591,-51.9544 -13.9016,0.844489 -28.4032,2.48504 -43.3973,4.88268zm234.304 483.903c0,-9.48662 19.976,-16.7634 45.6248,-20.9504 12.3331,-1.97126 25.5319,-2.95748 38.7201,-2.95748 12.8291,0 25.6547,0.986221 37.4929,2.71654 0.368504,0.122835 0.863386,0.240945 1.23307,0.368504l0 -0.127559c25.7705,4.18701 45.8764,11.4638 45.8752,20.9504 0,12.6921 -11.2217,30.4347 -28.6087,44.7296 -15.1736,12.4453 -34.9004,21.5622 -55.8685,21.5622 -20.9587,0 -40.6902,-9.11694 -55.9831,-21.5622 -17.387,-14.2949 -28.4858,-32.0374 -28.4858,-44.7296z"/>
   <path id="_287440504" class="fil0" d="M1023.96 1433.86c-5.50394,9.54095 -12.2221,18.2965 -19.9335,26.0433 -22.6925,22.552 -54.0119,36.6024 -88.4174,36.6036 -8.89253,0 -17.5689,-0.937796 -25.9406,-2.72008 4.06418,13.8508 14.3362,24.5292 28.8981,32.4166 25.526,13.7965 63.1371,19.8378 105.434,19.8378 42.1772,0 79.9123,-6.04134 105.314,-19.8378 14.6681,-7.89213 24.9638,-18.5776 29.0268,-32.4402 -8.41536,1.79528 -17.1378,2.74252 -26.0669,2.7437 -34.4079,0 -65.6032,-14.0516 -88.2969,-36.6036 -7.75276,-7.74686 -14.498,-16.5012 -20.0173,-26.0433z"/>
   <path id="_287440168" class="fil0" d="M567.107 1071.26c-17.0173,-21.3166 -27.3756,-48.7937 -27.3756,-77.1355 0,-5.79331 0.491339,-11.9528 1.47756,-18.2398l31.0831 -193.588c-22.6335,8.45434 -45.6071,18.0721 -68.6752,28.7469 -79.5331,110.08 -90.3863,210.603 -100.029,299.648 -1.84961,17.7437 -3.69922,34.9937 -6.04371,52.0016 1.47992,-1.23071 2.83583,-2.34449 4.1941,-3.32599 11.8382,-9.73702 19.3595,-15.8988 46.4906,-10.7209l0.121654 0c9.00355,1.72323 14.9221,10.4752 13.3193,19.4669 -0.246851,1.11378 -0.616536,2.09882 -0.986221,3.08032 -17.7591,58.904 -23.8016,115.834 -20.348,167.097 3.20551,45.0981 13.689,85.5154 30.4595,118.913 20.4709,-20.3351 39.3366,-34.0134 55.7386,-43.2555 37.9819,-21.1925 67.0855,-17.9906 74.7308,-13.8024 0.616536,0.368504 1.11142,0.620079 1.72795,0.989765 17.5099,11.7036 17.6339,46.8189 17.8819,92.4154 0.121654,43.4965 0.491339,98.2099 13.3158,142.943 4.07008,-20.5795 11.5913,-35.9823 21.5811,-46.826 13.4421,-14.4177 30.5835,-20.7047 49.6961,-20.4555 17.2642,0.120473 35.8855,5.79095 54.3863,15.5268 40.6926,21.3166 82.3772,63.3402 106.543,109.67 5.42953,-7.26851 11.7165,-12.939 18.4973,-17.0043 13.689,-8.01142 29.1012,-9.61182 44.7674,-5.17796 14.0575,3.94134 28.3583,12.939 41.6823,26.3705 20.2181,20.3291 39.2114,52.1256 52.6524,93.4052 13.4445,-41.2796 32.4331,-73.076 52.6571,-93.4052 13.3217,-13.4315 27.6236,-22.4292 41.6847,-26.3705 15.6579,-4.43386 30.9508,-2.83347 44.6363,5.17796 6.913,4.06536 13.0748,9.73583 18.6248,17.0043 24.1689,-46.33 65.8512,-88.3536 106.422,-109.67 18.4937,-9.73583 37.2414,-15.4063 54.5091,-15.5268 19.1114,-0.249213 36.2528,6.0378 49.5685,20.4555 10.1161,10.8437 17.6374,26.2465 21.7063,46.826 12.8268,-44.7331 13.0725,-99.4465 13.3181,-142.943 0.246851,-46.9465 0.369685,-82.9288 19.4847,-93.4052 1.84843,-0.981497 3.82441,-1.60158 5.79449,-1.84843 12.085,-2.70945 37.4894,-1.97008 68.9351,15.6508 16.5248,9.24331 35.3906,22.9205 55.865,43.2555 16.6477,-33.3981 27.2504,-73.8154 30.3343,-118.913 3.57756,-51.6319 -2.59134,-109.055 -20.7166,-168.448 -2.71418,-8.74961 2.22047,-18.1181 11.0988,-20.8276 0.98504,-0.245669 1.97126,-0.491339 2.95748,-0.615355 26.2689,-4.68544 33.7914,1.35473 45.3839,10.9677 1.23307,0.981497 2.71181,2.09291 4.19292,3.32599 -2.34449,-16.7563 -4.19174,-33.7607 -6.16654,-51.2622 -9.76654,-89.2725 -20.9776,-190.259 -100.596,-300.682 -23.0953,-10.6701 -46.0878,-20.2772 -68.7367,-28.7185l31.8343 193.853c0.981497,6.28701 1.47756,12.5681 1.47756,18.4866 0,28.0949 -10.2366,55.4493 -27.3768,76.8886 -17.2642,21.6886 -41.6811,37.3382 -69.6756,42.0177 -5.42245,0.864568 -10.852,1.35945 -16.1551,1.35945 -0.780709,0.0826772 -1.56024,0.157087 -2.33858,0.223229l0 40.1918c0,34.3807 -14.0575,65.68 -36.6272,88.3548 -22.6878,22.5473 -54.0166,36.5977 -88.4198,36.5988 -3.47953,0 -6.93308,-0.13937 -10.3571,-0.419292l0 91.9725c0,34.3807 -14.0599,65.68 -36.6296,88.3501 -8.0067,7.95945 -17.0906,14.8606 -27.0059,20.4567 -0.172441,34.4918 -18.5114,58.9772 -48.339,75.169 -30.7028,16.6358 -73.989,23.9043 -121.345,23.9043 -47.4792,0 -90.6379,-7.26851 -121.342,-23.9043 -29.8181,-16.1882 -48.1618,-40.6677 -48.3414,-75.1489 -9.90828,-5.60197 -18.9898,-12.5091 -27.0095,-20.4768 -22.565,-22.6701 -36.7429,-53.9693 -36.7429,-88.3512l0 -91.9701c-3.43347,0.27874 -6.88938,0.416929 -10.3595,0.418111 -34.4055,0 -65.6056,-14.0516 -88.2969,-36.5988 -22.6902,-22.6748 -36.7488,-53.9741 -36.7488,-88.356l0 -40.2012c-0.73819,-0.0625985 -1.47756,-0.134646 -2.21811,-0.212599 -5.18032,0 -10.4823,-0.494882 -15.9083,-1.35945 -28.1173,-4.43386 -52.5343,-20.211 -69.9213,-42.0177z"/>
   <path id="_287440648" class="fil0" d="M853.573 761.104c-12.2079,-8.50394 -25.9004,-13.5555 -39.7063,-15.1559 -10.6063,-1.35945 -21.2114,-0.620079 -31.4504,1.84134 1.11378,10.3536 4.19528,20.5819 9.00591,30.0721 6.28937,12.4453 15.6614,23.6599 27.8658,32.1603 12.2138,8.50394 25.9004,13.5543 39.8386,15.1559 10.4823,1.35354 21.2032,0.739371 31.441,-1.72441 -1.23071,-10.4752 -4.31457,-20.7 -9.00001,-30.189 -6.41575,-12.4465 -15.7854,-23.537 -27.9945,-32.1603z"/>
   <path id="_287440264" class="fil0" d="M1234.13 745.948c-13.937,1.60039 -27.6236,6.65197 -39.8315,15.1559 -12.2091,8.62205 -21.5799,19.7138 -27.8717,32.1603 -4.80355,9.48898 -7.76457,19.7138 -8.9941,30.189 10.2295,2.46378 20.8323,3.07796 31.4398,1.72441 13.9323,-1.60276 27.6201,-6.65197 39.8339,-15.1559 12.2079,-8.5004 21.5799,-19.7138 27.8705,-32.1603 4.80355,-9.49016 7.76457,-19.7185 9.00119,-30.0721 -10.2378,-2.4626 -20.8453,-3.20079 -31.4481,-1.84134z"/>
  </g>
 </g>
 <rect class="fil1" width="2048" height="2048"/>
</svg>
