<?xml version="1.0" encoding="UTF-8"?>
<!DOCTYPE svg PUBLIC "-//W3C//DTD SVG 1.1//EN" "http://www.w3.org/Graphics/SVG/1.1/DTD/svg11.dtd">
<!-- Creator: CorelDRAW -->
<svg xmlns="http://www.w3.org/2000/svg" xml:space="preserve" width="2048px" height="2048px" style="shape-rendering:geometricPrecision; text-rendering:geometricPrecision; image-rendering:optimizeQuality; fill-rule:evenodd; clip-rule:evenodd"
viewBox="0 0 2048 2048"
 xmlns:xlink="http://www.w3.org/1999/xlink">
 <defs>
  <style type="text/css">
   <![CDATA[
    .fil1 {fill:none}
    .fil0 {fill:#424242}
   ]]>
  </style>
 </defs>
 <g id="Layer_x0020_1">
  <metadata id="CorelCorpID_0Corel-Layer"/>
  <g id="_287441992">
   <path id="_287441704" class="fil0" d="M1187.02 1468.98c-2.08937,11.8429 21.3461,52.239 42.9615,100.637 -56.8843,-22.865 -132.704,-34.2898 -207.903,-34.1339 -74.2583,0.152362 -148.589,11.6173 -204.235,34.5118 21.6626,-48.5646 45.2244,-89.1414 43.1303,-101.015l-8.55237 -48.4855c20.3941,9.94017 43.7422,17.687 68.739,23.2524 8.88662,1.96299 17.6823,-3.65197 19.6453,-12.5374 1.96181,-8.88544 -3.65197,-17.6811 -12.5374,-19.6441 -25.2284,-5.61615 -48.3756,-13.5921 -67.7469,-23.9268 -5.51693,-2.94331 -10.715,-6.07678 -15.5539,-9.39804l-11.9079 -67.5071c22.5567,8.97048 48.6603,15.9165 76.6938,20.8559 8.99292,1.56969 17.5595,-4.44922 19.128,-13.4421 1.56969,-8.99292 -4.44922,-17.5583 -13.4421,-19.1268 -27.3803,-4.82599 -52.3878,-11.5465 -73.2284,-20.1591 -5.69646,-2.35512 -11.074,-4.8437 -16.0902,-7.46339l-12.2551 -69.4654 0.425197 0.131102c24.3189,7.51772 52.9737,13.3547 84.0249,17.5193 9.02835,1.21181 17.3339,-5.12481 18.5469,-14.1532 1.21299,-9.02835 -5.12481,-17.3339 -14.1532,-18.5469 -29.3055,-3.92953 -56.1638,-9.3815 -78.7253,-16.3559 -5.88662,-1.82008 -11.4555,-3.73229 -16.6701,-5.73898l-12.502 -70.8686c1.33819,0.305906 2.68819,0.607087 4.05118,0.903544 24.3378,5.31024 53.1638,9.52324 84.6544,12.6425 6.25276,19.1197 20.0811,32.4107 36.1394,32.4107 21.9248,0 39.6981,-24.7772 39.6981,-55.3406 0,-30.5646 -17.7732,-55.3406 -39.6981,-55.3406 -19.3477,0 -35.4579,19.2945 -38.98,44.8335 -27.4961,-2.89488 -52.9004,-6.72993 -74.8359,-11.5158 -6.09567,-1.32992 -11.876,-2.72126 -17.3067,-4.1752l-12.6791 -71.8796c2.4815,0.368504 5.0067,0.729922 7.57678,1.08425 26.6847,3.67559 58.0914,6.5563 92.1816,8.64568 9.1004,0.533859 16.9134,-6.40985 17.4484,-15.5102 0.53504,-9.1004 -6.40867,-16.9134 -15.5091,-17.4484 -33.424,-2.04803 -64.0075,-4.8437 -89.7272,-8.38583 -5.77796,-0.796064 -11.3067,-1.62756 -16.5591,-2.49803 -1.87559,-27.2197 1.24961,-51.8894 8.52402,-73.9619 6.99213,0.700394 14.4756,1.35236 22.389,1.95591 23.7579,1.81181 52.5945,3.26339 84.528,4.34764 9.1004,0.284646 16.7114,-6.86221 16.9961,-15.9626 0.284646,-9.1004 -6.86221,-16.7114 -15.9626,-16.9949 -30.2847,-1.02992 -58.5709,-2.47677 -83.1072,-4.34764 -3.66024,-0.27874 -7.20709,-0.565748 -10.6394,-0.859843 84.6343,-147.043 375.468,-147.025 460.048,0.0850394 -3.65315,0.305906 -7.42678,0.601182 -11.3162,0.88819 -24.4866,1.80591 -52.5378,3.21378 -82.4812,4.22363 -9.1004,0.284646 -16.2473,7.89568 -15.9626,16.9961 0.284646,9.1004 7.89449,16.2473 16.9949,15.9626 31.4788,-1.06299 60.0296,-2.47323 83.7745,-4.22481 8.20749,-0.604725 15.9591,-1.25551 23.1862,-1.95118 7.26497,22.1008 10.3713,46.8 8.46851,74.0552 -5.46142,0.874016 -11.2087,1.71024 -17.2158,2.50984 -25.6169,3.41221 -55.9489,6.13111 -89.0493,8.14371 -9.1004,0.533859 -16.0441,8.34804 -15.5091,17.4484 0.53504,9.1004 8.34804,16.0441 17.4484,15.5091 33.554,-2.04095 64.6536,-4.84252 91.3749,-8.40237 2.83583,-0.376772 5.61969,-0.764174 8.35394,-1.15984l-12.7122 72.0709c-5.61615,1.46102 -11.5713,2.85 -17.8335,4.17166 -21.7949,4.6004 -46.9855,8.32442 -74.2501,11.165 -3.52559,-25.5307 -19.6358,-44.8181 -38.98,-44.8181 -21.9248,0 -39.6992,24.7772 -39.6992,55.3406 0,30.5634 17.7744,55.3406 39.6992,55.3406 16.0642,0 29.8996,-13.3004 36.1488,-32.4331 30.913,-3.0378 59.4189,-7.13623 83.8028,-12.2835 1.63701,-0.346063 3.25748,-0.698032 4.86142,-1.05354l-12.5398 71.0894c-5.37874,2.00197 -11.113,3.90709 -17.1579,5.71654 -22.689,6.79016 -49.3028,12.111 -78.0981,15.9473 -9.02835,1.17638 -15.3957,9.45237 -14.2181,18.4819 1.17756,9.02835 9.45355,15.3945 18.4819,14.2169 30.7819,-4.10079 59.1603,-9.76772 83.2701,-16.9819l1.19173 -0.359055 -12.3 69.7288c-5.15788,2.59488 -10.6713,5.05985 -16.5024,7.39253 -20.8583,8.34568 -45.6674,14.8973 -72.7193,19.6347 -8.99292,1.56969 -15.0118,10.135 -13.4421,19.128 1.56969,8.99292 10.135,15.0118 19.128,13.4421 27.9437,-4.89331 54.0213,-11.7343 76.643,-20.5229l-11.9776 67.8969c-4.93465,3.25276 -10.2248,6.32363 -15.8291,9.21969 -19.4587,10.0512 -42.4429,17.8429 -67.3453,23.3575 -8.88544,1.96299 -14.4992,10.7587 -12.5362,19.6441 1.96181,8.88544 10.7587,14.5004 19.6441,12.5374 24.9579,-5.52756 48.2835,-13.161 68.6812,-22.8874l-8.50158 48.1914zm-68.6953 173.721c8.17205,-4.03229 11.5287,-13.9288 7.49528,-22.1008 -4.03229,-8.17205 -13.9288,-11.5287 -22.1008,-7.49646 -13.9618,6.93898 -26.8075,16.8295 -37.5957,29.6799 -9.92009,11.8146 -18.1158,26.1874 -23.8418,43.1256 -2.89016,8.63623 1.76929,17.9823 10.4055,20.8725 8.63623,2.89134 17.9823,-1.76811 20.8725,-10.4043 4.30748,-12.7429 10.4587,-23.5418 17.8973,-32.3988 7.7752,-9.25985 16.95,-16.3488 26.8677,-21.2776zm-143.77 52.1197c3.10512,8.56536 12.5669,12.991 21.1323,9.88702 8.56536,-3.10512 12.991,-12.5669 9.88702,-21.1323 -5.90788,-16.2437 -14.2028,-30.1229 -24.1689,-41.6138 -10.7669,-12.4134 -23.4366,-22.0146 -37.1339,-28.787 -8.17205,-4.03229 -18.0685,-0.676772 -22.1008,7.49646 -4.03347,8.17205 -0.676772,18.0685 7.49528,22.1008 9.88229,4.88504 19.024,11.8134 26.7945,20.7732 7.4126,8.54764 13.6205,18.9732 18.0945,31.2756zm273.696 -79.9253c30.2055,85.9737 32.2559,177.106 -122.126,177.106l-204.255 0c-153.859,0 -152.34,-90.5115 -122.428,-176.227 50.243,-31.4492 135.967,-47.1567 222.638,-47.3351 87.1879,-0.179528 174.246,15.3803 226.172,46.4552z"/>
   <g>
    <path id="_287442064" class="fil0" d="M1230.9 825.438c43.8048,-113.988 175.143,-177.938 228.519,-270.325 52.852,-91.48 24.3095,-262.638 -19.3429,-299.113 -45.2953,71.3316 -105.245,176.647 -153.871,280.79 -45.0508,96.4855 -80.2512,191.529 -84.5316,256.298 -0.301181,4.78819 -2.61496,8.97048 -6.06497,11.7768l35.2914 20.5736zm169.76 -568.702c-58.33,34.604 -154.035,177.38 -197.349,253.716 -49.2272,86.7532 -63.7123,167.427 -62.3977,262.529l27.9307 16.2815c5.07048,-69.1985 41.302,-167.476 87.5056,-266.431 45.1807,-96.7654 100.019,-194.58 144.311,-266.095z"/>
    <path id="_287441848" class="fil0" d="M817.1 825.438c-43.8048,-113.988 -175.143,-177.938 -228.519,-270.325 -52.852,-91.48 -24.3095,-262.638 19.3429,-299.113 45.2953,71.3316 105.245,176.647 153.871,280.79 45.0508,96.4855 80.2512,191.529 84.5316,256.298 0.301181,4.78819 2.61496,8.97048 6.06497,11.7768l-35.2914 20.5736zm-169.76 -568.702c58.33,34.604 154.035,177.38 197.349,253.716 49.2272,86.7532 63.7123,167.427 62.3977,262.529l-27.9307 16.2815c-5.07048,-69.1985 -41.302,-167.476 -87.5056,-266.431 -45.1807,-96.7654 -100.019,-194.58 -144.311,-266.095z"/>
   </g>
   <ellipse id="_287442112" class="fil0" cx="1128.34" cy="1084.53" rx="23.7844" ry="33.1556"/>
   <ellipse id="_287442280" class="fil0" cx="919.661" cy="1084.53" rx="23.7844" ry="33.1556"/>
  </g>
 </g>
 <rect class="fil1" width="2048" height="2048"/>
</svg>
